<svg xmlns="http://www.w3.org/2000/svg" viewBox="0 0 256 256" role="img" aria-label="Inolabium logo">
  <defs>
    <linearGradient id="g1" x1="0%" y1="0%" x2="100%" y2="100%">
      <stop offset="0%" stop-color="#22d3ee"/>
      <stop offset="100%" stop-color="#2563eb"/>
    </linearGradient>
    <linearGradient id="g2" x1="0%" y1="0%" x2="0%" y2="100%">
      <stop offset="0%" stop-color="#22d3ee"/>
      <stop offset="100%" stop-color="#06b6d4"/>
    </linearGradient>
  </defs>
  <rect x="8" y="8" width="240" height="240" rx="48" fill="#0f172a" stroke="url(#g1)" stroke-width="8"/>
  <path d="M66 184 L116 84 L140 84 L190 184 Z" fill="none" stroke="url(#g1)" stroke-width="8" stroke-linejoin="round"/>
  <path d="M90 176 C110 164, 146 164, 166 176 C152 192, 104 194, 90 176 Z" fill="url(#g2)" opacity="0.9"/>
  <path d="M178 96 C192 82, 208 80, 220 86 C216 98, 202 114, 188 126 C176 116, 172 106, 178 96 Z" fill="none" stroke="#5eead4" stroke-width="8" stroke-linejoin="round"/>
  <path d="M186 126 C174 138, 160 152, 142 170" fill="none" stroke="#5eead4" stroke-width="8" stroke-linecap="round"/>
  <circle cx="203" cy="100" r="6" fill="#5eead4"/>
  <path d="M178 124 L170 138 L184 130 Z" fill="#fb923c"/>
  <circle cx="78" cy="96" r="6" fill="#22d3ee"/>
  <circle cx="98" cy="88" r="4" fill="#22d3ee" opacity="0.8"/>
  <circle cx="86" cy="114" r="4" fill="#22d3ee" opacity="0.8"/>
</svg>
